<?xml version="1.0" encoding="UTF-8"?>
<svg width="40" height="40" viewBox="0 0 40 40" fill="none" xmlns="http://www.w3.org/2000/svg">
  <defs>
    <linearGradient id="gradient" x1="0%" y1="0%" x2="100%" y2="100%">
      <stop offset="0%" style="stop-color:#FF1493;stop-opacity:1" />
      <stop offset="100%" style="stop-color:#FFD700;stop-opacity:1" />
    </linearGradient>
  </defs>
  
  <!-- Основна форма логотипу -->
  <circle cx="20" cy="20" r="18" fill="url(#gradient)" stroke="#2C3E50" stroke-width="2"/>
  
  <!-- Літера B -->
  <path d="M12 10 L12 30 L20 30 C23 30 25 28 25 25 C25 23 24 22 22 22 C24 22 25 20 25 18 C25 15 23 13 20 13 L12 13 Z M15 16 L19 16 C20 16 21 16.5 21 18 C21 19.5 20 20 19 20 L15 20 Z M15 23 L20 23 C21.5 23 22 24 22 25 C22 26 21.5 27 20 27 L15 27 Z" fill="white"/>
  
  <!-- Декоративні елементи -->
  <circle cx="30" cy="12" r="2" fill="#FFD700" opacity="0.8"/>
  <circle cx="8" cy="28" r="1.5" fill="#FF1493" opacity="0.6"/>
  <circle cx="32" cy="28" r="1" fill="#2C3E50" opacity="0.4"/>
</svg>
